<mxfile host="app.diagrams.net" modified="2024-03-26T02:28:39.798Z" agent="Mozilla/5.0 (Windows NT 10.0; Win64; x64) AppleWebKit/537.36 (KHTML, like Gecko) Chrome/123.0.0.0 Safari/537.36" etag="1t8ib56wYdus9-o1EfG-" version="24.1.0" type="device">
  <diagram name="Page-1" id="3XmXYrm2wg8v2aH8XLRo">
    <mxGraphModel dx="1434" dy="746" grid="1" gridSize="10" guides="1" tooltips="1" connect="1" arrows="1" fold="1" page="1" pageScale="1" pageWidth="827" pageHeight="1169" math="0" shadow="0">
      <root>
        <mxCell id="0" />
        <mxCell id="1" parent="0" />
        <mxCell id="Wk7v_zkOAtIAy9PezbAy-3" style="edgeStyle=orthogonalEdgeStyle;rounded=0;orthogonalLoop=1;jettySize=auto;html=1;exitX=1;exitY=0.5;exitDx=0;exitDy=0;entryX=0;entryY=0.5;entryDx=0;entryDy=0;" edge="1" parent="1" source="Wk7v_zkOAtIAy9PezbAy-1" target="Wk7v_zkOAtIAy9PezbAy-2">
          <mxGeometry relative="1" as="geometry" />
        </mxCell>
        <mxCell id="Wk7v_zkOAtIAy9PezbAy-1" value="NPC Post the request at AG" style="rounded=1;whiteSpace=wrap;html=1;" vertex="1" parent="1">
          <mxGeometry x="100" y="120" width="120" height="60" as="geometry" />
        </mxCell>
        <mxCell id="Wk7v_zkOAtIAy9PezbAy-5" style="edgeStyle=orthogonalEdgeStyle;rounded=0;orthogonalLoop=1;jettySize=auto;html=1;exitX=1;exitY=0.5;exitDx=0;exitDy=0;entryX=0;entryY=0.5;entryDx=0;entryDy=0;" edge="1" parent="1" source="Wk7v_zkOAtIAy9PezbAy-2" target="Wk7v_zkOAtIAy9PezbAy-4">
          <mxGeometry relative="1" as="geometry" />
        </mxCell>
        <mxCell id="Wk7v_zkOAtIAy9PezbAy-2" value="Adventurer accepts requests from AG" style="rounded=1;whiteSpace=wrap;html=1;" vertex="1" parent="1">
          <mxGeometry x="360" y="120" width="120" height="60" as="geometry" />
        </mxCell>
        <mxCell id="Wk7v_zkOAtIAy9PezbAy-6" style="edgeStyle=orthogonalEdgeStyle;rounded=0;orthogonalLoop=1;jettySize=auto;html=1;exitX=1;exitY=0.5;exitDx=0;exitDy=0;" edge="1" parent="1" source="Wk7v_zkOAtIAy9PezbAy-4">
          <mxGeometry relative="1" as="geometry">
            <mxPoint x="840" y="150" as="targetPoint" />
          </mxGeometry>
        </mxCell>
        <mxCell id="Wk7v_zkOAtIAy9PezbAy-4" value="Adventurer get rewards from NPC when complete the request ($)" style="rounded=1;whiteSpace=wrap;html=1;" vertex="1" parent="1">
          <mxGeometry x="620" y="120" width="120" height="60" as="geometry" />
        </mxCell>
        <mxCell id="Wk7v_zkOAtIAy9PezbAy-9" style="edgeStyle=orthogonalEdgeStyle;rounded=0;orthogonalLoop=1;jettySize=auto;html=1;exitX=0.5;exitY=1;exitDx=0;exitDy=0;entryX=0.5;entryY=0;entryDx=0;entryDy=0;" edge="1" parent="1" source="Wk7v_zkOAtIAy9PezbAy-7" target="Wk7v_zkOAtIAy9PezbAy-8">
          <mxGeometry relative="1" as="geometry" />
        </mxCell>
        <mxCell id="Wk7v_zkOAtIAy9PezbAy-7" value="Adventurers could purchase some tools to level-up the characters" style="rounded=1;whiteSpace=wrap;html=1;" vertex="1" parent="1">
          <mxGeometry x="840" y="120" width="120" height="60" as="geometry" />
        </mxCell>
        <mxCell id="Wk7v_zkOAtIAy9PezbAy-8" value="When get a set of tool, the ad will get some rewards" style="rounded=1;whiteSpace=wrap;html=1;" vertex="1" parent="1">
          <mxGeometry x="840" y="260" width="120" height="60" as="geometry" />
        </mxCell>
      </root>
    </mxGraphModel>
  </diagram>
</mxfile>
